# xmcd CD database file
#
# Track frame offsets:
#	150
#	15605
#	32762
#	45982
#	66790
#	88052
#	100175
#	116470
#	133227
#	148140
#	167097
#	179682
#	191302
#	210412
#
# Disc length: 3130 seconds
#
# Revision: 3
# Processed by: cddbd v1.5.2PL0 Copyright (c) Steve Scherf et al.
# Submitted via: CDex 1.51
#
DISCID=c00c380e
DTITLE=Magic Sam - Magic Touch
DYEAR=1900
DGENRE=Blues
TTITLE0=Juke
TTITLE1=Hate To See You Go
TTITLE2=Just Like A Fish
TTITLE3=Dirty Work Goin' On
TTITLE4=Rock Me
TTITLE5=I've Been Down So Long
TTITLE6=I Just Can't Please You
TTITLE7=I Just Got To Know
TTITLE8=Tore Down
TTITLE9=Scratch My Back
TTITLE10=Sawed Off Shotgun
TTITLE11=Backstroke
TTITLE12=All Your Love
TTITLE13=19 Years Old
EXTD=Black Top CD BT-1085\nLicensed from and previously released by Black Magic Records, The Netherlands\n\nMagic Sam:  guitar and vocals\nShakey Jake:  harmonica and vocals\nMack Thompson:  bass\nOdie Payne:  drums\n\nSubmitted by J. McCoy (April 1997)
EXTT0=
EXTT1=
EXTT2=
EXTT3=
EXTT4=
EXTT5=
EXTT6=
EXTT7=
EXTT8=
EXTT9=
EXTT10=
EXTT11=
EXTT12=
EXTT13=
PLAYORDER=
